# xmcd
#
# Track frame offsets: 
#        150
#        19975
#        46707
#        68230
#
# Disc length: 1345 seconds
#
# Revision: 0
# Processed by: cddbd v1.5.2PL0 Copyright (c) Steve Scherf et al.
# Submitted via: ExactAudioCopyFreeDBPlugin 1.0
#
DISCID=2c053f04
DTITLE=Domino Theory - Radio Driver [CDS Promo)
DYEAR=1990
DGENRE=R&B
TTITLE0=Radio Driver (Single Remix Version)
TTITLE1=Radio Driver (Extended Version)
TTITLE2=Radio Driver (Instrumental)
TTITLE3=Radio Driver (Bomb Mix)
EXTD=
EXTT0=
EXTT1=
EXTT2=
EXTT3=
PLAYORDER=
